<?xml version="1.0" encoding="UTF-8" standalone="no"?>
<svg width="456" height="456" viewBox="0 0 456 456" version="1.1" xmlns="http://www.w3.org/2000/svg">
    <g fill="none" stroke="#FFFDF9" stroke-linecap="round" stroke-linejoin="round">
        <path d="M118 122h128c28 0 50 22 50 50v168H168c-28 0-50-22-50-50V122z" stroke-width="22"/>
        <path d="M338 122H210c-28 0-50 22-50 50v168h128c28 0 50-22 50-50V122z" stroke-width="22"/>
        <path d="M169 196c18-14 34-21 50-21 20 0 35 10 51 30 12 15 21 22 30 22 13 0 27-13 41-39" stroke="#F7C65C" stroke-width="18"/>
        <path d="M150 282h156" stroke-width="16"/>
    </g>
</svg>
