<?xml version="1.0" encoding="UTF-8" standalone="no"?>
<svg width="456" height="456" viewBox="0 0 456 456" version="1.1" xmlns="http://www.w3.org/2000/svg">
    <rect x="0" y="0" width="456" height="456" rx="96" fill="#F5EFE6" />
    <g fill="none" stroke-linecap="round" stroke-linejoin="round">
        <path d="M128 138h128c28 0 50 22 50 50v144H178c-28 0-50-22-50-50V138z" stroke="#173F5F" stroke-width="22"/>
        <path d="M328 138H200c-28 0-50 22-50 50v144h128c28 0 50-22 50-50V138z" stroke="#173F5F" stroke-width="22"/>
        <path d="M160 220c18-14 34-21 50-21 20 0 35 10 51 30 12 15 21 22 30 22 13 0 27-13 41-39" stroke="#D96C47" stroke-width="18"/>
        <path d="M160 294h136" stroke="#173F5F" stroke-width="16"/>
    </g>
</svg>
